<svg width="106" height="24" viewBox="0 0 106 24" fill="none" xmlns="http://www.w3.org/2000/svg">
<g clip-path="url(#clip0_12723_209173)">
<path d="M11.6129 19.2037H25.9497V9.96161C25.95 8.65336 25.6949 7.35787 25.1991 6.14915C24.7033 4.94043 23.9764 3.84217 23.06 2.91709C22.1436 1.99202 21.0556 1.25826 19.8582 0.757737C18.6609 0.257214 17.3775 -0.000267574 16.0815 2.08657e-07H14.6297C13.3339 1.8126e-07 12.0507 0.25768 10.8536 0.758322C9.65642 1.25897 8.56869 1.99276 7.65251 2.91781C6.73632 3.84286 6.00962 4.94104 5.51392 6.14962C5.01821 7.35821 4.76321 8.65353 4.76348 9.96161V17.0389H0V19.2037H0.0121157C0.636073 19.2037 1.25392 19.3277 1.83038 19.5688C2.40685 19.8098 2.93063 20.1631 3.37184 20.6085C3.81304 21.0539 4.16302 21.5826 4.4018 22.1645C4.64058 22.7464 4.76348 23.3701 4.76348 24H6.86555C6.86528 23.3704 6.98786 22.7469 7.2263 22.1651C7.46473 21.5834 7.81434 21.0547 8.25517 20.6093C8.696 20.1639 9.21941 19.8106 9.79553 19.5694C10.3716 19.3282 10.9892 19.2039 11.6129 19.2037ZM6.86555 17.0389V9.96161C6.86501 7.88222 7.68265 5.88775 9.13865 4.41683C10.5946 2.9459 12.5698 2.11897 14.6297 2.11789H16.0815C17.1018 2.11789 18.1121 2.32079 19.0547 2.71499C19.9974 3.1092 20.8538 3.687 21.5752 4.41538C22.2965 5.14377 22.8687 6.00847 23.259 6.9601C23.6492 7.91173 23.85 8.93165 23.8497 9.96161V17.0389H6.86555Z" fill="#F2F9FF"/>
<path d="M15.8981 6.11619C16.8834 6.11727 17.828 6.5127 18.5249 7.21579C19.2218 7.91888 19.614 8.87224 19.6156 9.86683V13.0467H11.0922V9.86683C11.0938 8.87224 11.4861 7.91888 12.183 7.21579C12.8798 6.5127 13.8245 6.11727 14.8097 6.11619H15.8981ZM15.8981 3.99626H14.8097C13.2672 3.99626 11.7878 4.6147 10.6968 5.71559C9.60588 6.81647 8.99272 8.30967 8.99219 9.86683V15.1666H21.7136V9.86683C21.7139 9.09563 21.5637 8.33192 21.2716 7.61933C20.9795 6.90673 20.5512 6.25918 20.0112 5.71367C19.4711 5.16816 18.83 4.73537 18.1242 4.43999C17.4185 4.14462 16.6621 3.99246 15.8981 3.99219V3.99626Z" fill="#F2F9FF"/>
<path d="M25.2221 0.703141H25.0202V1.23108H24.9051V0.703141H24.7031V0.609375H25.2201L25.2221 0.703141Z" fill="#F2F9FF"/>
<path d="M25.2812 0.609375H25.4428L25.5498 0.890673C25.574 0.95794 25.5963 1.01909 25.6124 1.06801C25.6286 1.01909 25.6508 0.95794 25.675 0.890673L25.7881 0.609375H25.9496V1.23108H25.8366V0.951824C25.8366 0.862135 25.8366 0.79283 25.8366 0.747986C25.8204 0.796907 25.7962 0.864853 25.7639 0.951824L25.6629 1.23312H25.572L25.4711 0.951824C25.4388 0.862135 25.4145 0.794189 25.3984 0.747986V1.23108H25.2873L25.2812 0.609375Z" fill="#F2F9FF"/>
<path d="M40.4086 4.84844C41.5489 4.19217 42.8441 3.86037 44.1564 3.88835C45.3566 3.86837 46.5441 4.13887 47.6195 4.67721C48.6135 5.17239 49.4522 5.93578 50.0426 6.88275C50.6415 7.87329 50.9735 9.00459 51.0058 10.1646H48.6655C48.6278 8.90347 48.2017 7.88428 47.3873 7.10697C46.5728 6.32967 45.4959 5.94237 44.1564 5.94509C42.6985 5.94509 41.53 6.45605 40.651 7.47796C39.7719 8.49987 39.3317 9.8588 39.3303 11.5547C39.3125 12.6129 39.5155 13.663 39.926 14.6368C40.2809 15.4897 40.8667 16.2244 41.6162 16.7567C42.3629 17.2745 43.2506 17.5452 44.1564 17.5313C45.4811 17.5313 46.558 17.1236 47.3873 16.3083C47.7938 15.9019 48.1161 15.418 48.3356 14.8846C48.555 14.3513 48.6671 13.7793 48.6655 13.2018H50.9917C50.9784 14.378 50.6557 15.5296 50.0568 16.5386C49.4734 17.497 48.6381 18.2732 47.6437 18.7808C46.5613 19.329 45.3632 19.6039 44.1524 19.5819C42.8364 19.6104 41.5386 19.268 40.4046 18.5933C39.3183 17.9261 38.446 16.9564 37.8926 15.8007C37.2763 14.4965 36.9713 13.0646 37.0021 11.62C36.9742 10.2157 37.281 8.82519 37.8967 7.56561C38.4552 6.43315 39.328 5.4891 40.4086 4.84844Z" fill="#F2F9FF"/>
<path d="M58.1542 11.2218C59.635 11.2218 60.7328 11.1837 61.4476 11.1076C62.0564 11.0696 62.6419 10.8575 63.1357 10.4961C63.5396 10.172 63.7415 9.64611 63.7415 8.92044C63.7415 8.1377 63.4009 7.43582 62.7197 6.81479C62.0386 6.19376 60.9616 5.88324 59.4889 5.88324C58.0512 5.88324 56.9534 6.28005 56.1954 7.07366C55.4358 7.86433 54.9626 8.89066 54.8526 9.98652H52.583C52.5731 8.90626 52.8687 7.84557 53.4351 6.92894C54.0274 5.97998 54.8653 5.21241 55.8582 4.70913C57.0098 4.13387 58.2832 3.85118 59.5676 3.88562C61.8185 3.88562 63.4554 4.41085 64.4785 5.4613C65.5016 6.51175 66.0125 7.87747 66.0112 9.55846V19.1389H63.8505L63.7375 14.2101H63.6244C63.4346 16.0623 62.7615 17.4212 61.6051 18.2868C60.4366 19.1558 59.0177 19.6135 57.5665 19.5894C56.0521 19.5894 54.8405 19.2313 53.9318 18.5151C53.0232 17.799 52.5641 16.7907 52.5547 15.4902C52.5547 14.153 53.0326 13.1073 53.9884 12.3531C54.9442 11.5989 56.3328 11.2218 58.1542 11.2218ZM61.0639 16.8946C61.8807 16.4404 62.5657 15.7784 63.0509 14.9745C63.4962 14.252 63.7365 13.42 63.7455 12.5692V10.3269H63.6325C63.5678 10.8393 63.3329 11.3143 62.9661 11.6743C62.6147 11.9977 62.0419 12.2505 61.2477 12.4326C60.1159 12.6488 58.9668 12.7594 57.8149 12.7628C56.9439 12.8022 56.2533 13.036 55.7431 13.464C55.4941 13.6697 55.2954 13.9307 55.1626 14.2267C55.0299 14.5226 54.9666 14.8455 54.9778 15.1701C54.9778 16.8131 56.0278 17.6346 58.1279 17.6346C59.1514 17.6526 60.1615 17.3974 61.0559 16.8946H61.0639Z" fill="#F2F9FF"/>
<path d="M80.6545 9.30081V19.1299H78.3848V10.0448C78.3848 8.82178 78.0254 7.84336 77.3065 7.10954C76.5877 6.37572 75.6413 6.00745 74.4674 6.00473C73.8486 5.9856 73.234 6.1132 72.6729 6.37729C72.1118 6.64138 71.6199 7.03459 71.2366 7.52537C70.4289 8.53641 70.025 9.8634 70.025 11.5063V19.1299H67.7109V4.34344H69.8675L70.0089 8.64241H70.1785C70.375 7.2101 70.9445 6.05909 71.8868 5.18937C72.8401 4.31576 74.0912 3.84827 75.3781 3.8848C76.968 3.8848 78.2469 4.38149 79.2148 5.37487C80.1827 6.36824 80.6626 7.67689 80.6545 9.30081Z" fill="#F2F9FF"/>
<path d="M87.0936 6.06396V15.3203C87.0936 16.103 87.2544 16.6187 87.5762 16.8674C87.8992 17.1161 88.4566 17.2404 89.2522 17.2404C89.7637 17.2404 90.3877 17.2119 91.124 17.1548V19.1932C90.3311 19.2503 89.6311 19.2788 89.024 19.2788C87.9282 19.2788 87.0861 19.1735 86.4979 18.9629C86.2224 18.8715 85.9676 18.7257 85.7485 18.5339C85.5294 18.3421 85.3503 18.1082 85.2217 17.8459C84.9524 17.3118 84.8178 16.5189 84.8178 15.467V6.06396H82.2109V4.3456H84.8239V0.472656H87.0087L87.0936 4.3456H91.1321V6.06396H87.0936Z" fill="#F2F9FF"/>
<path d="M98.1383 11.2216C99.6191 11.2216 100.717 11.1836 101.432 11.1075C102.04 11.0686 102.626 10.8565 103.12 10.496C103.524 10.1719 103.726 9.64596 103.726 8.92029C103.726 8.13755 103.385 7.43566 102.704 6.81464C102.023 6.19361 100.946 5.88309 99.473 5.88309C98.0339 5.88309 96.9361 6.2799 96.1796 7.07351C95.4228 7.86533 94.9526 8.89153 94.8448 9.98637H92.5751C92.5656 8.90642 92.8604 7.846 93.4253 6.92879C94.0183 5.98043 94.856 5.21303 95.8484 4.70898C96.9982 4.13469 98.2693 3.85203 99.5517 3.88547C101.804 3.88547 103.441 4.41069 104.463 5.46114C105.484 6.51159 105.995 7.87732 105.995 9.55831V19.1387H103.843L103.73 14.2099H103.617C103.427 16.0621 102.75 17.4211 101.587 18.2867C100.419 19.1557 98.9998 19.6133 97.5486 19.5892C96.0342 19.5892 94.8226 19.2311 93.9139 18.515C93.0052 17.7988 92.5496 16.7905 92.5469 15.49C92.5469 14.1528 93.0241 13.1071 93.9785 12.3529C94.933 11.5987 96.3196 11.2216 98.1383 11.2216ZM101.048 16.8945C101.865 16.4402 102.55 15.7783 103.035 14.9743C103.48 14.2519 103.721 13.4198 103.73 12.569V10.3268H103.617C103.552 10.8391 103.317 11.3141 102.95 11.6742C102.599 11.9976 102.026 12.2503 101.232 12.4324C100.1 12.6487 98.9509 12.7592 97.799 12.7627C96.9294 12.8021 96.2388 13.0358 95.7272 13.4639C95.4782 13.6696 95.2795 13.9306 95.1468 14.2265C95.014 14.5224 94.9508 14.8453 94.9619 15.17C94.9619 16.8129 96.012 17.6344 98.112 17.6344C99.1382 17.6536 100.151 17.3983 101.048 16.8945Z" fill="#F2F9FF"/>
</g>
<defs>
<clipPath id="clip0_12723_209173">
<rect width="106" height="24" fill="white"/>
</clipPath>
</defs>
</svg>
